<?xml version="1.0" standalone="no"?>
<!DOCTYPE svg PUBLIC "-//W3C//DTD SVG 20010904//EN"
 "http://www.w3.org/TR/2001/REC-SVG-20010904/DTD/svg10.dtd">
<svg version="1.0" xmlns="http://www.w3.org/2000/svg"
 width="944.000000pt" height="296.000000pt" viewBox="0 0 944.000000 296.000000"
 preserveAspectRatio="xMidYMid meet">
<metadata>
Created by potrace 1.16, written by Peter Selinger 2001-2019
</metadata>
<g transform="translate(0.000000,296.000000) scale(0.100000,-0.100000)"
fill="#000000" stroke="none">
<path d="M3211 2020 c-172 -60 -316 -111 -319 -114 -7 -8 7 -12 136 -41 197
-45 215 -58 192 -145 -7 -27 -8 -46 -2 -52 6 -6 46 2 108 22 82 27 120 33 219
37 107 5 131 3 222 -21 56 -14 118 -26 137 -26 31 0 36 3 36 24 0 56 -126 121
-260 136 -82 9 -106 15 -132 38 -24 20 -23 32 3 32 22 0 386 -64 459 -81 66
-15 90 -42 90 -99 0 -162 38 -136 62 42 19 142 4 160 -201 235 -183 67 -366
123 -401 123 -19 -1 -176 -50 -349 -110z"/>
<path d="M4895 1655 c-5 -2 -44 -11 -85 -20 -143 -32 -242 -111 -308 -244 -34
-69 -37 -82 -37 -161 0 -76 3 -92 33 -152 71 -145 189 -213 499 -287 46 -11
99 -28 118 -37 98 -46 20 -144 -115 -144 -72 0 -124 25 -182 86 -46 47 -48 48
-116 52 -81 5 -221 -20 -267 -47 -59 -35 -29 -119 81 -228 80 -79 169 -128
289 -159 93 -23 276 -24 365 -1 165 43 294 139 353 264 30 64 32 75 32 178 0
100 -2 115 -27 161 -54 102 -170 172 -398 239 -129 38 -238 84 -260 109 -46
57 98 109 201 72 20 -7 54 -27 76 -45 25 -20 57 -35 81 -38 72 -10 294 51 306
83 19 49 -89 167 -210 231 -130 68 -217 93 -326 92 -51 0 -97 -2 -103 -4z
m-120 -232 c-3 -10 -9 -48 -12 -84 -5 -61 -3 -71 27 -128 41 -76 119 -149 205
-192 50 -24 85 -34 157 -41 179 -17 223 -63 223 -233 0 -91 -2 -104 -28 -147
-15 -27 -41 -55 -57 -63 -32 -16 -76 -20 -84 -7 -3 5 13 37 34 73 53 85 53
120 1 187 -69 87 -149 143 -225 156 -22 4 -73 21 -115 38 -180 71 -272 150
-273 236 0 52 22 97 83 165 50 57 77 73 64 40z"/>
<path d="M3970 1648 c0 -4 39 -69 87 -145 168 -266 195 -408 122 -628 -110
-328 -411 -516 -720 -451 -131 28 -285 117 -371 216 -104 119 -157 248 -165
405 -9 176 39 309 167 465 92 113 92 141 -1 82 -60 -39 -110 -99 -158 -191
-86 -166 -120 -320 -102 -463 21 -166 80 -285 201 -409 89 -90 179 -146 310
-191 90 -30 103 -32 240 -32 131 0 153 3 225 27 162 54 296 161 389 310 179
287 149 600 -82 862 -82 93 -142 153 -142 143z"/>
<path d="M350 960 l0 -670 215 0 215 0 0 260 0 260 158 0 c226 0 333 31 422
120 110 110 140 310 69 457 -32 67 -131 168 -194 199 -69 33 -203 43 -602 44
l-283 0 0 -670z m294 509 c36 -28 35 -91 -4 -212 -45 -139 -44 -144 45 -232
41 -41 75 -81 75 -88 0 -37 -143 -207 -175 -207 -26 0 -16 -27 20 -51 44 -30
44 -49 0 -88 -41 -36 -50 -38 -61 -14 -10 24 -18 664 -9 772 6 75 10 88 35
113 34 34 40 34 74 7z m537 -52 c44 -30 94 -129 116 -230 16 -75 16 -78 -3
-105 -23 -31 -109 -92 -130 -92 -20 0 -17 20 12 84 31 68 41 158 24 210 -8 26
-27 48 -60 72 -27 19 -51 40 -53 47 -14 41 41 50 94 14z m-222 -118 c64 -13
99 -41 107 -84 9 -47 -13 -85 -65 -114 -37 -20 -59 -25 -132 -25 -117 -1 -124
5 -124 118 0 108 7 116 96 116 37 0 91 -5 118 -11z"/>
<path d="M1560 960 l0 -670 209 0 209 0 4 228 c2 193 6 232 20 254 36 55 84
37 130 -49 21 -38 109 -292 143 -412 l7 -24 218 6 c119 4 225 9 234 13 22 8
24 1 -112 307 l-114 258 96 98 c118 120 141 165 140 271 0 94 -32 163 -116
255 -89 97 -135 116 -311 126 -78 4 -280 8 -449 8 l-308 1 0 -670z m264 496
c19 -24 22 -46 26 -198 l5 -170 42 -36 c23 -21 43 -44 44 -52 7 -36 -15 -93
-57 -150 -59 -80 -65 -98 -74 -203 -4 -58 -12 -93 -22 -103 -14 -14 -16 -11
-26 28 -21 84 -35 296 -36 538 -1 269 5 326 35 359 25 26 36 24 63 -13z m619
-47 c32 -17 77 -60 93 -91 33 -64 5 -172 -77 -288 l-44 -63 1 -126 c0 -115 3
-134 32 -217 46 -131 42 -141 -26 -75 -53 52 -108 134 -172 259 l-53 103 95
97 c109 111 146 169 155 240 5 46 3 52 -31 89 -39 44 -42 53 -24 71 15 15 23
15 51 1z m-248 -63 c74 -18 105 -49 105 -107 0 -22 -4 -48 -10 -58 -15 -30
-88 -52 -186 -58 -87 -6 -92 -5 -107 18 -12 17 -17 45 -17 97 0 64 3 76 25 97
29 30 94 33 190 11z"/>
<path d="M5660 960 l0 -670 210 0 210 0 0 259 0 259 203 4 c238 5 279 15 355
83 53 47 111 152 133 239 25 101 -7 249 -75 338 -41 54 -127 102 -220 123 -90
21 -321 34 -593 35 l-223 0 0 -670z m360 493 c0 -14 -22 -68 -50 -119 -31 -58
-50 -105 -50 -126 0 -20 22 -79 56 -148 43 -91 54 -122 50 -148 -3 -19 -30
-86 -60 -150 -30 -65 -57 -130 -61 -147 -21 -96 -46 -124 -59 -69 -16 61 -25
244 -25 474 0 275 8 371 37 409 19 25 80 48 135 50 23 1 27 -3 27 -26z m498
-67 c15 -8 38 -26 52 -41 68 -72 -9 -355 -96 -355 -31 0 -31 22 1 123 33 102
32 141 -5 210 -16 31 -30 61 -30 67 0 15 47 12 78 -4z m-180 -93 c33 -16 37
-22 40 -61 2 -30 -3 -53 -17 -75 -37 -60 -136 -98 -215 -83 -57 11 -66 27 -66
120 0 87 9 107 55 119 39 11 165 -1 203 -20z"/>
<path d="M6880 960 l0 -670 495 0 495 0 0 175 0 175 -172 1 c-95 0 -222 4
-282 8 -129 9 -146 21 -146 100 0 92 24 100 313 101 l197 0 0 158 0 157 -187
-13 c-224 -15 -291 -13 -309 13 -17 24 -18 96 -1 118 19 27 113 37 360 37
l227 0 0 155 0 155 -495 0 -495 0 0 -670z m301 489 l38 -22 -36 -70 c-46 -92
-43 -122 31 -267 31 -61 56 -118 56 -126 0 -9 -13 -26 -28 -39 -16 -13 -43
-52 -62 -86 -43 -81 -39 -131 17 -220 22 -35 42 -72 46 -81 8 -22 -26 -47 -76
-55 -96 -15 -128 120 -128 552 -1 266 12 369 53 412 27 28 40 29 89 2z"/>
<path d="M7940 960 l0 -670 226 0 227 0 -7 47 c-14 103 -19 418 -7 441 20 37
79 24 119 -28 35 -45 55 -93 118 -275 l62 -180 195 1 c225 2 267 10 267 53 0
16 -8 39 -19 52 -30 40 -71 125 -146 309 l-72 174 65 49 c81 60 96 78 130 147
24 49 27 67 27 155 -1 122 -24 189 -90 263 -58 65 -115 88 -245 101 -111 11
-595 31 -755 31 l-95 0 0 -670z m314 498 c22 -31 20 -57 -11 -124 -25 -54 -26
-62 -16 -120 6 -34 28 -99 48 -144 57 -125 56 -136 -7 -281 -30 -68 -63 -144
-72 -169 -19 -50 -51 -98 -60 -89 -34 34 -34 825 0 912 15 40 94 49 118 15z
m608 -61 c115 -94 121 -134 40 -294 -98 -194 -112 -282 -71 -455 30 -129 18
-146 -55 -78 -30 28 -63 78 -109 169 l-67 128 30 47 c17 26 53 77 82 114 100
130 120 219 78 339 -11 32 -20 61 -20 65 0 21 44 4 92 -35z m-262 -52 c69 -18
100 -51 100 -106 0 -22 -4 -48 -10 -58 -16 -32 -88 -52 -200 -58 -133 -7 -136
-4 -121 96 13 85 26 116 55 129 31 15 113 14 176 -3z"/>
<path d="M3526 1447 c-44 -80 -73 -101 -127 -92 -31 5 -40 3 -45 -10 -6 -15 2
-82 22 -187 7 -34 -7 -36 -49 -6 -44 32 -137 32 -187 1 -112 -70 -89 -177 74
-339 71 -71 102 -95 140 -108 104 -34 424 -29 481 8 12 8 25 29 28 46 5 22 30
53 82 102 85 81 111 132 102 199 -10 78 -90 128 -185 115 -56 -8 -98 -33 -112
-67 -15 -34 -6 -61 32 -104 16 -19 28 -42 26 -52 -2 -10 -32 -33 -72 -53 -64
-32 -76 -35 -160 -35 -109 0 -175 20 -235 71 -23 20 -41 40 -39 44 2 4 52 49
112 99 125 104 145 110 210 61 22 -17 48 -30 57 -30 43 0 94 114 87 196 -3 37
-5 39 -38 42 -41 4 -67 26 -125 105 l-43 58 -36 -64z"/>
<path d="M1671 109 c-903 -7 -1126 -13 -1066 -30 84 -25 4765 -37 7055 -19
1153 9 1389 16 1217 34 -220 22 -5010 33 -7206 15z"/>
</g>
</svg>
