<?xml version="1.0" standalone="no"?>
<!DOCTYPE svg PUBLIC "-//W3C//DTD SVG 20010904//EN"
 "http://www.w3.org/TR/2001/REC-SVG-20010904/DTD/svg10.dtd">
<svg version="1.0" xmlns="http://www.w3.org/2000/svg"
 width="300.000000pt" height="300.000000pt" viewBox="0 0 300.000000 300.000000"
 preserveAspectRatio="xMidYMid meet">
<metadata>
Created by potrace 1.10, written by Peter Selinger 2001-2011
</metadata>
<g transform="translate(0.000000,300.000000) scale(0.100000,-0.100000)"
fill="#000000" stroke="none">
<path d="M1170 2122 l-75 -26 43 -10 c36 -8 41 -12 36 -29 -5 -17 -3 -19 12
-13 38 15 84 18 115 7 18 -6 35 -8 38 -5 10 10 -32 34 -60 34 -15 0 -31 5 -35
12 -5 8 2 9 27 4 19 -4 51 -10 72 -13 32 -5 37 -9 37 -31 0 -35 7 -24 12 16 3
33 2 34 -66 58 -38 13 -72 24 -75 23 -3 0 -40 -12 -81 -27z"/>
<path d="M1532 2029 c-42 -13 -75 -63 -67 -104 7 -42 45 -72 110 -85 44 -9 55
-15 53 -28 -5 -26 -63 -28 -80 -3 -11 16 -21 19 -56 14 -23 -3 -42 -11 -42
-17 0 -22 33 -58 66 -72 97 -40 204 8 204 92 0 48 -27 73 -100 93 -41 11 -65
23 -65 32 0 20 50 23 68 4 14 -13 23 -14 57 -5 39 11 40 11 24 35 -17 25 -81
56 -117 54 -12 0 -37 -5 -55 -10z m2 -63 c-8 -34 46 -86 90 -86 40 0 56 -15
56 -55 0 -33 -15 -55 -37 -55 -11 0 -10 5 2 23 14 22 14 26 -9 50 -14 15 -32
27 -41 27 -9 0 -34 9 -55 20 -44 23 -52 50 -23 82 21 24 25 23 17 -6z"/>
<path d="M500 1875 l0 -155 50 0 50 0 0 60 0 60 49 0 c69 0 111 35 111 92 0
30 -7 46 -29 69 -29 28 -32 29 -130 29 l-101 0 0 -155z m75 115 c3 -6 1 -26
-6 -45 -12 -32 -11 -36 10 -54 22 -20 22 -20 4 -45 -10 -14 -22 -26 -28 -26
-5 0 -3 -5 5 -10 12 -7 12 -12 3 -21 -7 -7 -15 -10 -18 -8 -7 8 -8 196 0 208
8 14 22 14 30 1z m123 -8 c7 -5 17 -24 22 -43 8 -28 7 -36 -7 -46 -25 -19 -35
-16 -23 6 15 28 12 61 -5 67 -8 4 -15 10 -15 15 0 11 11 11 28 1z m-30 -46 c5
-23 -14 -36 -50 -36 -25 0 -28 4 -28 31 0 29 2 30 37 27 28 -2 39 -8 41 -22z"/>
<path d="M785 1875 l0 -155 48 0 47 0 0 60 c0 50 3 60 18 60 12 0 22 -17 36
-60 l19 -60 54 0 c29 0 53 2 53 4 0 2 -13 33 -29 68 l-28 63 28 27 c39 35 39
79 0 119 -29 28 -31 29 -138 29 l-108 0 0 -155z m67 73 c-3 -34 0 -47 12 -51
17 -7 13 -31 -11 -58 -7 -9 -12 -26 -11 -39 2 -12 -2 -25 -8 -27 -13 -4 -20
199 -9 218 15 24 30 0 27 -43z m163 -18 c-4 -14 -14 -33 -22 -42 -16 -17 -14
-58 3 -102 15 -37 -20 -10 -43 34 l-23 44 30 29 c30 30 39 60 20 72 -6 4 -8
11 -4 16 4 6 14 3 26 -7 14 -13 17 -25 13 -44z m-67 31 c8 -5 12 -17 10 -27
-2 -14 -13 -20 -41 -22 -35 -3 -37 -2 -37 27 0 27 3 31 28 31 15 0 33 -4 40
-9z"/>
<path d="M1137 2019 c-25 -15 -57 -86 -57 -128 -1 -155 203 -230 303 -112 59
71 58 158 -4 224 l-30 32 25 -39 c36 -54 42 -98 21 -151 -31 -81 -113 -120
-191 -90 -103 39 -137 163 -68 245 28 33 28 35 1 19z"/>
<path d="M1745 1875 l0 -155 48 0 47 0 0 60 0 60 51 0 c64 0 87 13 105 57 12
28 13 42 4 69 -17 50 -51 64 -162 64 l-93 0 0 -155z m85 115 c0 -6 -7 -21 -15
-33 -13 -21 -13 -26 3 -56 18 -33 18 -35 0 -70 -10 -19 -18 -41 -18 -48 0 -7
-4 -13 -10 -13 -6 0 -10 43 -10 109 0 96 2 110 18 114 29 8 32 7 32 -3z m130
-25 c15 -18 -4 -85 -25 -85 -11 0 -11 6 -2 30 9 23 9 35 -1 50 -10 16 -10 20
2 20 7 0 19 -7 26 -15z m-47 -17 c8 -24 -13 -48 -43 -48 -27 0 -30 3 -30 30 0
27 3 30 34 30 19 0 36 -6 39 -12z"/>
<path d="M2030 1875 l0 -155 115 0 115 0 0 40 0 40 -70 0 c-68 0 -70 1 -70 25
0 24 3 25 60 25 l60 0 0 36 0 36 -60 -4 c-57 -4 -60 -3 -60 19 0 22 4 23 70
23 l70 0 0 35 0 35 -115 0 -115 0 0 -155z m80 109 c0 -2 -5 -12 -11 -22 -9
-14 -7 -26 10 -55 11 -20 17 -37 13 -37 -5 0 -14 -11 -21 -24 -11 -20 -10 -28
4 -50 16 -24 16 -26 0 -32 -29 -12 -38 13 -40 108 -2 99 6 131 30 122 8 -4 15
-8 15 -10z"/>
<path d="M2280 1876 l0 -156 51 0 51 0 -4 60 c-3 55 -1 61 16 58 14 -2 25 -20
39 -60 l19 -58 54 0 c52 0 63 6 46 26 -5 5 -18 32 -29 60 l-21 52 26 19 c36
27 37 92 4 125 -20 21 -34 23 -137 26 l-115 4 0 -156z m75 114 c4 -6 3 -16 -2
-23 -12 -16 -10 -36 7 -70 10 -21 11 -32 2 -50 -6 -12 -16 -35 -22 -51 -6 -16
-13 -26 -17 -23 -10 11 -9 217 2 221 17 7 24 6 30 -4z m147 -17 c23 -21 23
-30 -3 -77 -19 -36 -21 -61 -8 -105 9 -31 -19 -19 -36 16 -11 21 -21 41 -23
44 -1 4 9 20 23 37 27 33 33 55 20 85 -9 22 3 22 27 0z m-54 -12 c8 -5 12 -17
10 -27 -2 -14 -13 -20 -44 -22 -40 -3 -41 -3 -36 28 3 25 9 30 31 30 14 0 32
-4 39 -9z"/>
<path d="M1241 1981 c-7 -12 -17 -18 -26 -15 -12 5 -14 0 -8 -27 5 -29 4 -32
-8 -22 -21 17 -57 5 -61 -20 -2 -12 10 -33 30 -53 30 -30 38 -33 92 -33 44 1
60 4 60 14 0 8 10 21 22 29 31 22 31 63 -2 70 -34 6 -57 -16 -37 -36 13 -13
13 -16 -4 -26 -25 -16 -71 -15 -95 2 -10 8 -17 16 -14 18 3 2 17 14 32 27 23
20 30 22 43 11 14 -12 18 -11 26 1 12 19 12 52 0 44 -5 -3 -16 4 -24 16 l-15
21 -11 -21z"/>
<path d="M555 1670 c-27 -4 414 -7 980 -7 567 0 1005 3 975 7 -68 10 -1886 9
-1955 0z"/>
<path d="M710 1587 c0 -53 0 -53 30 -52 41 2 51 15 12 15 -40 0 -44 27 -4 33
l27 4 -27 2 c-40 2 -37 31 3 31 17 0 28 4 24 10 -3 6 -19 10 -36 10 -28 0 -29
-1 -29 -53z"/>
<path d="M800 1589 c0 -39 4 -49 20 -54 29 -9 70 20 70 49 0 30 -18 45 -59 50
-31 3 -31 3 -31 -45z m69 13 c13 -25 -5 -52 -34 -52 -22 0 -25 5 -25 35 0 31
3 35 25 35 13 0 29 -8 34 -18z"/>
<path d="M911 1598 c-1 -55 22 -78 59 -58 16 9 20 20 19 58 -1 26 -3 36 -6 22
-9 -60 -14 -70 -33 -70 -19 0 -24 10 -33 70 -3 14 -5 4 -6 -22z"/>
<path d="M1032 1624 c-12 -8 -22 -25 -22 -38 0 -31 33 -60 59 -51 29 9 26 21
-5 20 -15 0 -31 7 -37 17 -15 23 9 51 40 45 26 -5 31 8 7 17 -20 8 -16 9 -42
-10z"/>
<path d="M1120 1594 c-23 -53 -25 -63 -8 -46 18 18 55 15 67 -5 6 -10 11 -13
11 -7 0 13 -39 104 -45 104 -2 0 -13 -21 -25 -46z"/>
<path d="M1211 1584 c1 -33 4 -49 6 -36 5 27 27 29 46 2 12 -18 14 -15 15 30
0 33 -3 50 -11 50 -7 0 -22 3 -34 6 -22 6 -23 4 -22 -52z m57 14 c3 -13 -3
-18 -22 -18 -20 0 -26 5 -26 21 0 15 5 20 22 17 13 -2 24 -11 26 -20z"/>
<path d="M1320 1633 c-10 -3 -15 -17 -16 -47 -1 -41 1 -45 29 -50 17 -4 35 -2
41 4 7 7 0 10 -22 10 -40 0 -44 27 -4 33 l27 4 -27 2 c-40 2 -37 31 3 31 16 0
28 4 24 9 -5 9 -22 10 -55 4z"/>
<path d="M1484 1630 c-32 -13 -36 -46 -10 -77 17 -19 28 -24 44 -19 30 10 28
22 -4 21 -15 0 -31 7 -37 17 -15 23 9 51 40 45 26 -5 31 8 7 17 -9 3 -16 6
-17 5 -1 0 -12 -4 -23 -9z"/>
<path d="M1570 1594 c-23 -53 -25 -63 -8 -46 17 17 49 15 64 -5 7 -10 14 -13
14 -7 0 14 -39 104 -46 104 -3 0 -14 -21 -24 -46z"/>
<path d="M1726 1627 c-4 -9 -6 -26 -3 -37 7 -27 1 -25 -33 13 l-29 32 1 -55
c1 -46 2 -49 5 -15 l5 40 28 -35 c16 -19 31 -32 35 -29 3 4 5 29 3 55 -3 36
-6 44 -12 31z"/>
<path d="M1864 1627 c-3 -8 -4 -32 -2 -53 3 -37 4 -39 37 -37 41 3 54 13 54
48 0 33 -9 41 -51 50 -24 5 -33 3 -38 -8z m69 -29 c13 -20 -6 -48 -34 -48 -15
0 -19 7 -19 36 0 31 3 35 21 32 12 -2 27 -10 32 -20z"/>
<path d="M1980 1590 c-13 -27 -20 -53 -17 -56 4 -4 9 1 13 10 7 17 49 22 59 6
3 -5 10 -10 16 -10 5 0 -2 23 -16 50 -14 28 -27 50 -28 50 -2 0 -14 -22 -27
-50z"/>
<path d="M2143 1585 c0 -33 2 -45 4 -27 2 18 2 45 0 60 -2 15 -4 0 -4 -33z"/>
<path d="M1772 1588 c-10 -24 -17 -45 -14 -48 3 -3 7 1 9 8 5 14 63 17 63 2 0
-5 4 -10 10 -10 11 0 -25 83 -39 88 -5 2 -18 -16 -29 -40z"/>
<path d="M2181 1568 l2 -43 6 35 c8 47 41 55 41 11 0 -17 5 -31 10 -31 6 0 10
9 10 19 0 37 -12 51 -41 51 -28 0 -29 -2 -28 -42z"/>
<path d="M2270 1595 c-24 -28 9 -72 45 -59 26 10 16 25 -11 18 -23 -6 -25 -4
-22 17 2 18 9 23 26 22 12 -2 22 2 22 7 0 15 -46 12 -60 -5z"/>
<path d="M1393 1382 c-29 -10 -70 -31 -93 -47 -40 -28 -100 -99 -100 -119 0
-6 -15 -18 -33 -26 l-32 -15 -3 -87 c-3 -94 7 -128 38 -128 12 0 25 -13 36
-36 25 -53 90 -113 153 -142 80 -37 184 -37 261 0 65 31 123 84 150 139 16 31
26 39 48 39 45 0 52 16 52 117 0 86 -2 94 -24 108 -13 8 -30 13 -39 9 -11 -4
-22 6 -36 34 -67 131 -242 202 -378 154z m158 -13 c31 -16 82 -101 66 -111
-14 -9 -211 -11 -244 -2 -21 6 -22 8 -8 34 8 15 26 42 41 59 22 27 32 31 76
31 27 0 58 -5 69 -11z m-190 -45 c-12 -21 -21 -44 -21 -51 0 -16 1 -16 -39 -2
-28 10 -43 29 -22 29 4 0 28 15 52 34 24 19 45 33 47 31 2 -2 -6 -20 -17 -41z
m302 1 c25 -16 46 -33 47 -36 0 -3 -15 -10 -33 -16 -32 -10 -32 -9 -54 39 -25
55 -25 55 40 13z m-365 -71 c28 -6 31 -9 25 -37 -4 -21 -3 -28 5 -23 7 4 12
16 12 28 0 18 4 19 35 14 33 -6 172 -8 235 -3 19 2 26 -3 28 -20 2 -13 8 -23
14 -23 6 0 8 12 5 29 -5 26 -3 29 25 35 17 3 36 6 42 6 11 0 46 -49 46 -64 0
-3 -24 -7 -52 -7 l-53 -2 66 -7 c90 -11 112 -24 107 -61 -3 -16 -1 -29 3 -29
14 0 2 -81 -14 -97 -10 -10 -37 -16 -81 -17 -73 -1 -92 -16 -21 -16 47 0 56
-9 30 -30 -8 -7 -15 -19 -15 -26 0 -15 -12 -17 -58 -8 -28 6 -30 9 -25 35 3
18 1 29 -6 29 -6 0 -11 -12 -11 -26 0 -25 -1 -25 -47 -18 -59 9 -167 9 -216 0
-32 -6 -37 -4 -37 12 0 31 -23 43 -89 45 -79 4 -90 18 -88 114 2 80 2 80 87
90 61 6 64 13 7 13 -26 0 -47 3 -47 6 0 15 35 64 46 64 6 0 25 -3 42 -6z m25
-321 c3 -16 4 -29 3 -30 -1 -1 -20 -5 -42 -8 -42 -7 -40 -9 -72 58 -2 4 21 7
51 7 52 0 55 -1 60 -27z m297 -48 c0 -18 -44 -90 -61 -100 -19 -13 -110 -15
-131 -4 -23 13 -80 98 -72 110 3 5 63 9 135 9 109 0 129 -2 129 -15z m-263
-46 c12 -28 19 -49 15 -47 -21 8 -101 64 -102 70 0 5 44 25 60 27 3 0 15 -22
27 -50z m336 34 c25 -8 21 -15 -21 -41 -20 -12 -46 -29 -58 -37 -20 -14 -19
-12 5 39 19 39 30 53 41 49 8 -3 23 -8 33 -10z"/>
<path d="M1776 1143 c-13 -13 -20 -15 -23 -5 -6 15 -35 16 -50 1 -8 -8 -17 -7
-32 3 -18 11 -23 11 -31 -2 -5 -8 -8 -22 -5 -30 2 -8 7 -31 10 -50 9 -50 25
-62 89 -64 l56 -2 17 51 c9 27 18 62 19 76 3 23 0 26 -18 21 -14 -3 -19 -1
-14 6 10 17 3 15 -18 -5z m-102 -25 c3 -7 8 -26 12 -43 l7 -30 10 43 c5 23 16
42 23 42 7 0 19 -19 25 -42 l13 -43 9 43 c6 26 15 42 24 42 10 0 13 -6 8 -17
-3 -10 -11 -37 -18 -60 -6 -24 -17 -43 -24 -43 -7 0 -18 19 -24 43 l-13 42 -9
-42 c-5 -24 -15 -43 -22 -43 -7 0 -21 27 -32 60 -15 48 -17 60 -6 60 8 0 15
-6 17 -12z"/>
<path d="M1175 1125 c4 -29 24 -98 32 -111 10 -14 52 -25 58 -15 2 4 17 6 34
3 35 -5 55 21 65 85 5 36 3 44 -15 54 -17 9 -23 8 -30 -2 -6 -11 -11 -11 -21
-1 -15 15 -45 16 -50 0 -3 -7 -9 -8 -19 -2 -27 17 -56 12 -54 -11z m51 -30 c3
-19 10 -35 14 -35 4 0 11 16 14 35 9 49 34 46 42 -5 8 -46 19 -45 28 5 4 20
13 35 21 35 11 0 10 -12 -7 -60 -23 -70 -43 -77 -53 -19 -8 46 -14 45 -24 -3
-10 -51 -33 -41 -52 25 -14 46 -14 57 -3 57 7 0 16 -15 20 -35z"/>
<path d="M1423 1143 c-22 -8 -9 -107 18 -137 14 -16 107 -15 121 1 19 24 35
98 26 122 -8 22 -34 29 -40 10 -3 -8 -10 -8 -26 2 -16 10 -24 11 -33 2 -7 -7
-20 -8 -33 -4 -11 5 -27 6 -33 4z m34 -55 l9 -43 13 43 c6 23 18 42 26 42 8 0
16 -17 21 -42 l7 -43 14 43 c8 23 19 42 24 42 12 0 12 -5 -8 -67 -20 -63 -40
-69 -49 -13 -8 46 -19 45 -28 -5 -10 -49 -29 -44 -45 13 -8 26 -16 53 -19 60
-2 6 2 12 11 12 9 0 18 -16 24 -42z"/>
<path d="M1408 963 c39 -2 105 -2 145 0 39 1 7 3 -73 3 -80 0 -112 -2 -72 -3z"/>
</g>
</svg>
